<svg width="16" height="16" viewBox="0 0 16 16" fill="none" xmlns="http://www.w3.org/2000/svg">
<g clip-path="url(#clip0_2004_238)">
<path fill-rule="evenodd" clip-rule="evenodd" d="M13.333 5C14.6216 5 15.6658 6.0445 15.666 7.33301V13.333C15.666 14.6217 14.6217 15.666 13.333 15.666H7.33301C6.0445 15.6658 5 14.6216 5 13.333V7.33301C5.00018 6.04461 6.04461 5.00018 7.33301 5H13.333ZM7.33301 7C7.14918 7.00018 7.00018 7.14918 7 7.33301V13.333C7 13.517 7.14907 13.6658 7.33301 13.666H13.333C13.5171 13.666 13.666 13.5171 13.666 13.333V7.33301C13.6658 7.14907 13.517 7 13.333 7H7.33301Z" fill="#1E1E1E"/>
<path d="M8.89648 0.344727C9.43065 0.397661 9.93346 0.633806 10.3164 1.0166C10.7537 1.45402 10.9998 2.04749 11 2.66602V3.33301C11 3.88518 10.5521 4.33283 10 4.33301C9.44787 4.33283 9 3.88518 9 3.33301V2.66602C8.99982 2.57793 8.9646 2.493 8.90234 2.43066C8.85547 2.38393 8.79542 2.3526 8.73145 2.33984L8.66602 2.33301H2.66602C2.57785 2.33318 2.49302 2.36831 2.43066 2.43066C2.36831 2.49302 2.33318 2.57785 2.33301 2.66602V8.66602L2.33984 8.73145C2.3526 8.79542 2.38393 8.85547 2.43066 8.90234C2.493 8.9646 2.57793 8.99982 2.66602 9H3.33301L3.43555 9.00488C3.93955 9.05622 4.33284 9.48249 4.33301 10C4.33284 10.5175 3.93954 10.9428 3.43555 10.9941L3.33301 11H2.66602C2.04749 10.9998 1.45402 10.7537 1.0166 10.3164C0.633806 9.93346 0.397661 9.43065 0.344727 8.89648L0.333008 8.66602V2.66602C0.333183 2.04742 0.579172 1.45403 1.0166 1.0166C1.45403 0.579172 2.04742 0.333183 2.66602 0.333008H8.66602L8.89648 0.344727Z" fill="#1E1E1E"/>
</g>
<defs>
<clipPath id="clip0_2004_238">
<rect width="16" height="16" fill="white"/>
</clipPath>
</defs>
</svg>
