<svg width="16" height="16" viewBox="0 0 16 16" fill="none" xmlns="http://www.w3.org/2000/svg">
<path d="M11.4952 3.37997C11.8094 3.12351 12.2725 3.1417 12.5655 3.43466C12.8584 3.72762 12.8766 4.19078 12.6202 4.50497L12.5655 4.56552L9.13092 8.00009L12.5655 11.4347L12.6202 11.4952C12.8766 11.8094 12.8584 12.2726 12.5655 12.5655C12.2726 12.8584 11.8094 12.8766 11.4952 12.6202L11.4346 12.5655L8.00006 9.13095L4.56549 12.5655C4.2531 12.8779 3.74705 12.8779 3.43463 12.5655C3.12222 12.2531 3.12223 11.7471 3.43463 11.4347L6.8692 8.00009L3.43463 4.56552L3.37994 4.50497C3.12349 4.19076 3.14169 3.72762 3.43463 3.43466C3.72759 3.1417 4.19072 3.12351 4.50494 3.37997L4.56549 3.43466L8.00006 6.86923L11.4346 3.43466L11.4952 3.37997Z" fill="#1E1E1E"/>
</svg>
