<svg width="20" height="20" viewBox="0 0 20 20" fill="none" xmlns="http://www.w3.org/2000/svg">
<path fill-rule="evenodd" clip-rule="evenodd" d="M9.91592 1.875C10.0959 1.87504 10.2726 1.92355 10.4274 2.01538C10.5822 2.10725 10.7098 2.23947 10.796 2.39746L18.4584 16.3989C18.5416 16.5512 18.5835 16.7223 18.5805 16.8958C18.5774 17.0695 18.5288 17.2396 18.4401 17.3889C18.3513 17.5383 18.2251 17.6621 18.0739 17.7478C17.9227 17.8335 17.752 17.8789 17.5783 17.8784H2.25357C2.07974 17.8789 1.90795 17.8335 1.75674 17.7478C1.60574 17.6621 1.47927 17.5382 1.39053 17.3889C1.3019 17.2396 1.25325 17.0693 1.25015 16.8958C1.24714 16.7222 1.29017 16.5512 1.37344 16.3989L9.03579 2.39746C9.12208 2.23944 9.2496 2.10725 9.40444 2.01538C9.55923 1.92361 9.73597 1.875 9.91592 1.875ZM9.91592 12.2754C9.52693 12.2754 9.15337 12.43 8.87832 12.7051C8.60327 12.9801 8.44863 13.3537 8.44863 13.7427C8.4487 14.1314 8.60356 14.5041 8.87832 14.7791C9.15337 15.0541 9.52693 15.2087 9.91592 15.2087C10.3048 15.2087 10.6773 15.054 10.9523 14.7791C11.2273 14.5041 11.3819 14.1316 11.382 13.7427C11.382 13.3537 11.2273 12.9801 10.9523 12.7051C10.6773 12.4303 10.3046 12.2754 9.91592 12.2754ZM8.96865 7.20947C8.87215 7.20957 8.77668 7.22996 8.68911 7.27051C8.60132 7.31122 8.52339 7.37123 8.46084 7.44507C8.3983 7.51891 8.35228 7.60569 8.32656 7.69897C8.30097 7.79201 8.29615 7.88943 8.31191 7.98462L8.84902 11.2085H10.9828L11.5199 7.98462C11.5357 7.88949 11.5308 7.79195 11.5053 7.69897C11.4796 7.60578 11.4334 7.51886 11.371 7.44507C11.3084 7.37123 11.2305 7.31122 11.1427 7.27051C11.0549 7.2298 10.9587 7.20952 10.862 7.20947H8.96865Z" fill="#F33D4F"/>
</svg>
