<svg width="24" height="29" viewBox="0 0 24 29" fill="none" xmlns="http://www.w3.org/2000/svg">
<path d="M7.66667 15.6667H15.6667M7.66667 21H11.6667M1 3.66667V25C1 25.7072 1.28095 26.3855 1.78105 26.8856C2.28115 27.3857 2.95942 27.6667 3.66667 27.6667H19.6667C20.3739 27.6667 21.0522 27.3857 21.5523 26.8856C22.0524 26.3855 22.3333 25.7072 22.3333 25V9.456C22.3333 9.10075 22.2623 8.74908 22.1244 8.42166C21.9866 8.09424 21.7847 7.79766 21.5307 7.54933L15.6107 1.76C15.1125 1.27288 14.4434 1.00009 13.7467 1H3.66667C2.95942 1 2.28115 1.28095 1.78105 1.78105C1.28095 2.28115 1 2.95942 1 3.66667Z" stroke="white" stroke-width="2" stroke-linecap="round" stroke-linejoin="round"/>
<path d="M14.332 1V6.33333C14.332 7.04058 14.613 7.71885 15.1131 8.21895C15.6132 8.71905 16.2915 9 16.9987 9H22.332" stroke="white" stroke-width="2" stroke-linejoin="round"/>
</svg>
