<svg width="320" height="320" viewBox="0 0 320 320" fill="none" xmlns="http://www.w3.org/2000/svg">
<path d="M176.234 213.013H178.044C179.826 210.171 181.845 207.248 184.143 204.307C193.618 192.162 204.369 184.027 213.337 178.624C213.337 178.624 248.631 152.38 265.825 124.327C265.825 124.327 280.304 103.513 291.164 59.1695C291.164 59.1695 297.498 15.7314 294.784 11.2066C294.784 11.2066 294.367 8.49173 288.241 11.2066C288.241 11.2066 252.25 27.4959 218.767 60.0745C218.767 60.0745 193.428 83.6034 179.854 134.281C179.854 134.281 171.709 172.29 176.234 213.013Z" fill="url(#paint0_radial_2096_76)"/>
<path d="M175.328 309.843C175.328 309.843 182.568 308.938 178.948 297.174C178.948 297.174 176.233 289.029 173.518 273.645C173.518 273.645 158.134 205.773 146.369 179.529C146.369 179.529 131.89 142.426 93.8817 108.942C93.8817 108.942 73.9726 90.8431 42.299 75.4588C42.299 75.4588 29.6295 67.3141 26.9146 70.029C26.9146 70.029 23.2948 69.124 26.0097 84.5084C26.0097 84.5084 34.1543 131.566 44.1089 151.475C44.1089 151.475 51.3486 175.004 86.642 215.728C86.642 215.728 100.216 228.397 138.225 260.976C138.225 260.976 155.419 276.36 163.564 297.174C163.564 297.174 166.279 311.653 175.328 309.843Z" fill="#0A0A0A"/>
<defs>
<radialGradient id="paint0_radial_2096_76" cx="0" cy="0" r="1" gradientUnits="userSpaceOnUse" gradientTransform="translate(145.963 203.465) scale(165.743 165.743)">
<stop stop-color="white"/>
<stop offset="0.07" stop-color="#F8F8F8"/>
<stop offset="0.17" stop-color="#E7E5E5"/>
<stop offset="0.29" stop-color="#CAC7C6"/>
<stop offset="0.42" stop-color="#A29D9C"/>
<stop offset="0.56" stop-color="#6E6765"/>
<stop offset="0.72" stop-color="#302623"/>
<stop offset="0.75" stop-color="#231815"/>
</radialGradient>
</defs>
</svg>
