<svg width="16" height="16" viewBox="0 0 16 16" fill="none" xmlns="http://www.w3.org/2000/svg">
<path d="M8 1C9.0101 1 9.97883 1.39509 10.6931 2.09835C11.4073 2.80161 11.8086 3.75544 11.8086 4.75V7C12.4147 7 12.9959 7.23705 13.4244 7.65901C13.853 8.08097 14.0938 8.65326 14.0938 9.25V13.75C14.0938 14.3467 13.853 14.919 13.4244 15.341C12.9959 15.7629 12.4147 16 11.8086 16H4.19141C3.58535 16 3.00411 15.7629 2.57556 15.341C2.14701 14.919 1.90625 14.3467 1.90625 13.75V9.25C1.90625 8.65326 2.14701 8.08097 2.57556 7.65901C3.00411 7.23705 3.58535 7 4.19141 7V4.75C4.19141 3.75544 4.59267 2.80161 5.30692 2.09835C6.02117 1.39509 6.9899 1 8 1ZM8 10C7.61565 9.99988 7.24547 10.1428 6.96364 10.4001C6.68182 10.6574 6.5092 11.0101 6.48037 11.3875L6.47656 11.5C6.47656 11.7967 6.56591 12.0867 6.73331 12.3334C6.90071 12.58 7.13863 12.7723 7.41701 12.8858C7.69538 12.9994 8.00169 13.0291 8.29721 12.9712C8.59273 12.9133 8.86418 12.7704 9.07723 12.5607C9.29029 12.3509 9.43538 12.0836 9.49417 11.7926C9.55295 11.5017 9.52278 11.2001 9.40747 10.926C9.29217 10.6519 9.0969 10.4176 8.84638 10.2528C8.59585 10.088 8.30131 10 8 10ZM8 2.5C7.39394 2.5 6.8127 2.73705 6.38415 3.15901C5.9556 3.58097 5.71484 4.15326 5.71484 4.75V7H10.2852V4.75C10.2852 4.15326 10.0444 3.58097 9.61585 3.15901C9.1873 2.73705 8.60606 2.5 8 2.5Z" fill="currentColor"/>
</svg>
