<svg width="20" height="20" viewBox="0 0 20 20" fill="none" xmlns="http://www.w3.org/2000/svg">
<path d="M17.6023 14.0049C18.1064 14.0562 18.4995 14.4821 18.4995 14.9998C18.4995 15.5174 18.1064 15.9433 17.6023 15.9946L17.4998 15.9995H2.49976C1.94747 15.9995 1.5 15.552 1.5 14.9998C1.5 14.4475 1.94747 14 2.49976 14H17.4998L17.6023 14.0049Z" fill="#1E1E1E"/>
<path d="M17.6023 9.00488C18.1064 9.05623 18.4995 9.48209 18.4995 9.99976C18.4995 10.5174 18.1064 10.9433 17.6023 10.9946L17.4998 10.9995H2.49976C1.94747 10.9995 1.5 10.552 1.5 9.99976C1.5 9.44747 1.94747 9 2.49976 9H17.4998L17.6023 9.00488Z" fill="#1E1E1E"/>
<path d="M17.6023 4.00488C18.1064 4.05623 18.4995 4.48209 18.4995 4.99976C18.4995 5.51742 18.1064 5.94329 17.6023 5.99463L17.4998 5.99951H2.49976C1.94747 5.99951 1.5 5.55204 1.5 4.99976C1.5 4.44747 1.94747 4 2.49976 4H17.4998L17.6023 4.00488Z" fill="#1E1E1E"/>
</svg>
