<svg width="16" height="16" viewBox="0 0 16 16" fill="none" xmlns="http://www.w3.org/2000/svg">
<path fill-rule="evenodd" clip-rule="evenodd" d="M11.2075 7.85107C11.2825 7.1114 11.907 6.53369 12.6665 6.53369C13.4763 6.53387 14.1331 7.19073 14.1333 8.00049C14.1331 8.75947 13.556 9.38402 12.8169 9.45947L12.6665 9.46728L12.5161 9.45947C11.7769 9.38416 11.1999 8.75957 11.1997 8.00049L11.2075 7.85107ZM12.5327 8.00049C12.5329 8.07398 12.593 8.13428 12.6665 8.13428L12.7183 8.12353C12.766 8.10331 12.8002 8.05554 12.8003 8.00049C12.8002 7.94557 12.7658 7.89872 12.7183 7.87842L12.6665 7.86768L12.6147 7.87842C12.5829 7.8919 12.557 7.91688 12.5435 7.94873L12.5327 8.00049Z" fill="#1E1E1E"/>
<path fill-rule="evenodd" clip-rule="evenodd" d="M6.54053 7.85107C6.61551 7.11149 7.24019 6.53386 7.99951 6.53369C8.80927 6.53387 9.46613 7.19073 9.46631 8.00049C9.46615 8.75958 8.88916 9.38417 8.1499 9.45947L7.99951 9.46728L7.8501 9.45947C7.11054 9.38445 6.53288 8.75979 6.53271 8.00049L6.54053 7.85107ZM7.8667 8.00049C7.86687 8.07387 7.92613 8.1341 7.99951 8.13428L8.05127 8.12353C8.09913 8.10338 8.13317 8.05565 8.1333 8.00049C8.13317 7.94546 8.09894 7.89866 8.05127 7.87842L7.99951 7.86768L7.94775 7.87842C7.91611 7.8919 7.89093 7.91708 7.87744 7.94873L7.8667 8.00049Z" fill="#1E1E1E"/>
<path fill-rule="evenodd" clip-rule="evenodd" d="M1.87451 7.85107C1.94954 7.11142 2.57405 6.53369 3.3335 6.53369C4.1431 6.53405 4.80012 7.19084 4.80029 8.00049C4.80013 8.75969 4.22232 9.38432 3.48291 9.45947L3.3335 9.46729L3.18311 9.45947C2.44371 9.38431 1.86686 8.75968 1.8667 8.00049L1.87451 7.85107ZM3.19971 8.00049C3.19988 8.07398 3.25997 8.13428 3.3335 8.13428L3.38525 8.12354C3.43282 8.10324 3.46618 8.05544 3.46631 8.00049C3.46618 7.94568 3.43263 7.89879 3.38525 7.87842L3.3335 7.86768L3.28174 7.87842C3.24979 7.89186 3.224 7.91684 3.21045 7.94873L3.19971 8.00049Z" fill="#1E1E1E"/>
</svg>
