<svg width="14" height="14" viewBox="0 0 14 14" fill="none" xmlns="http://www.w3.org/2000/svg">
<path d="M12.2002 9.33105L9.66602 6.79785L4.26465 12.2002H11.667C11.9613 12.2 12.2 11.9613 12.2002 11.667V9.33105ZM4.86621 4.66699C4.86621 4.55664 4.7773 4.46697 4.66699 4.4668C4.55654 4.4668 4.4668 4.55654 4.4668 4.66699C4.46697 4.7773 4.55664 4.86621 4.66699 4.86621C4.77719 4.86603 4.86603 4.77719 4.86621 4.66699ZM12.2002 2.33301C12.2 2.03871 11.9613 1.79998 11.667 1.7998H2.33301C2.03871 1.79998 1.79998 2.03871 1.7998 2.33301V11.667C1.79992 11.8661 1.91055 12.0374 2.07227 12.1289L9.10059 5.10059L9.16211 5.0459C9.47626 4.78992 9.93961 4.80794 10.2324 5.10059L12.2002 7.06836V2.33301ZM6.4668 4.66699C6.46662 5.66085 5.66085 6.46662 4.66699 6.4668C3.67299 6.4668 2.86639 5.66095 2.86621 4.66699C2.86621 3.67288 3.67288 2.86621 4.66699 2.86621C5.66095 2.86639 6.4668 3.67299 6.4668 4.66699ZM13.7998 11.667C13.7996 12.8449 12.8449 13.7996 11.667 13.7998H2.33301C1.15506 13.7996 0.200371 12.8449 0.200195 11.667V2.33301C0.200371 1.15506 1.15506 0.200371 2.33301 0.200195H11.667C12.8449 0.200371 13.7996 1.15506 13.7998 2.33301V11.667Z" fill="#1E1E1E"/>
</svg>
