<svg width="16" height="16" viewBox="0 0 16 16" fill="none" xmlns="http://www.w3.org/2000/svg">
<path fill-rule="evenodd" clip-rule="evenodd" d="M7.06228 2.53396C7.38465 1.66409 8.61481 1.66418 8.93728 2.53396L10.0008 5.40799C10.102 5.68154 10.3181 5.89748 10.5916 5.99881L13.4656 7.06228C14.3357 7.38462 14.3357 8.61494 13.4656 8.93728L10.5916 10.0008C10.318 10.1021 10.102 10.318 10.0008 10.5916L8.93728 13.4656L8.86697 13.6179C8.49191 14.2849 7.50765 14.2849 7.13259 13.6179L7.06228 13.4656L5.9988 10.5916C5.91011 10.3522 5.73364 10.1566 5.50759 10.0437L5.40798 10.0008L2.53396 8.93728C1.66418 8.61481 1.66408 7.38466 2.53396 7.06228L5.40798 5.99881C5.64752 5.91014 5.84296 5.73373 5.95583 5.5076L5.9988 5.40799L7.06228 2.53396ZM7.1238 5.824C6.92881 6.35097 6.54115 6.78071 6.04373 7.02908L5.824 7.12381L3.45681 7.99978L5.824 8.87576L6.04373 8.97049C6.47006 9.18337 6.81614 9.52953 7.02908 9.95584L7.1238 10.1756L7.99978 12.5418L8.87576 10.1756L8.97048 9.95584C9.21884 9.4585 9.64868 9.07076 10.1756 8.87576L12.5418 7.99978L10.1756 7.12381C9.64871 6.92878 9.21882 6.54107 8.97048 6.04373L8.87576 5.824L7.99978 3.45681L7.1238 5.824Z" fill="#00ADEF"/>
</svg>
