<svg width="16" height="16" viewBox="0 0 16 16" fill="none" xmlns="http://www.w3.org/2000/svg">
<path d="M7.19954 12.6663V8.80013H3.33333C2.89161 8.80013 2.5337 8.442 2.53353 8.00032C2.53353 7.55849 2.8915 7.19954 3.33333 7.19954H7.19954V3.33333C7.19954 2.8915 7.5585 2.53352 8.00032 2.53352C8.442 2.5337 8.80013 2.89161 8.80013 3.33333V7.19954H12.6663L12.7484 7.20442C13.1518 7.24536 13.4671 7.58609 13.4671 8.00032C13.467 8.41443 13.1517 8.75532 12.7484 8.79622L12.6663 8.80013H8.80013V12.6663C8.80013 13.1081 8.442 13.4669 8.00032 13.4671C7.5585 13.4671 7.19954 13.1082 7.19954 12.6663Z" fill="#1E1E1E"/>
</svg>
