<svg width="16" height="16" viewBox="0 0 16 16" fill="none" xmlns="http://www.w3.org/2000/svg">
<path d="M4.79991 8.33352C5.3298 8.3337 5.75965 8.78166 5.75989 9.33375C5.75975 9.88592 5.32986 10.3338 4.79991 10.334H3.38431L4.5871 11.512L4.60866 11.5335L4.82991 11.7503C5.36012 12.2372 5.98798 12.5969 6.66924 12.8023C7.44804 13.037 8.27191 13.0629 9.06264 12.8765C9.85312 12.6901 10.5858 12.2976 11.1917 11.7366C11.7975 11.1755 12.2581 10.463 12.5285 9.66683L12.566 9.57208C12.774 9.11401 13.2854 8.88461 13.7538 9.05732C14.2532 9.24165 14.5152 9.81349 14.3388 10.334L14.1841 10.7462C13.7957 11.6945 13.2097 12.5437 12.4676 13.2311C11.6192 14.0167 10.5934 14.5661 9.48638 14.8272C8.37928 15.0882 7.22621 15.0532 6.13582 14.7246C5.05495 14.3988 4.07051 13.7946 3.27181 12.9693L1.91996 11.6448V13.3347C1.91982 13.8868 1.48993 14.3347 0.959981 14.3349C0.429886 14.3349 0.000142776 13.8869 0 13.3347V9.33375C0.000242212 8.78155 0.429948 8.33352 0.959981 8.33352H4.79991Z" fill="#1E1E1E"/>
<path d="M6.51362 1.17272C7.62049 0.911893 8.7731 0.946788 9.86325 1.27528C10.9436 1.6009 11.9278 2.20491 12.7263 3.02959L14.08 4.3541V2.66524C14.0803 2.11307 14.51 1.66502 15.04 1.66502C15.5697 1.66537 15.9997 2.11329 16 2.66524V6.66615C16 7.21834 15.5699 7.66603 15.04 7.66638H11.2001C10.6699 7.66638 10.2401 7.21856 10.2401 6.66615C10.2404 6.11398 10.6701 5.66592 11.2001 5.66592H12.6157L11.4129 4.48792C11.4057 4.48089 11.3983 4.4737 11.3913 4.46643C10.8182 3.869 10.1086 3.43233 9.32982 3.19759C8.5512 2.96295 7.72793 2.93712 6.93736 3.12336C6.14671 3.30975 5.41336 3.70223 4.80741 4.26326C4.20153 4.82436 3.742 5.5369 3.47149 6.33307C3.29466 6.85373 2.74594 7.12664 2.24621 6.94258C1.74647 6.75833 1.48451 6.18663 1.66122 5.66592C2.03992 4.55116 2.68412 3.55341 3.53243 2.76781C4.38073 1.98246 5.4068 1.43365 6.51362 1.17272Z" fill="#1E1E1E"/>
</svg>
