<svg width="16" height="16" viewBox="0 0 16 16" fill="none" xmlns="http://www.w3.org/2000/svg">
<g clip-path="url(#clip0_2004_267)">
<path d="M8.00034 0.533524C12.1239 0.5337 15.4671 3.8767 15.4671 8.00032C15.467 12.1238 12.1238 15.4669 8.00034 15.4671C3.87672 15.4671 0.533715 12.1239 0.533539 8.00032C0.533539 3.87659 3.87661 0.533524 8.00034 0.533524ZM2.18881 8.80013C2.49552 11.0486 4.07553 12.8901 6.17905 13.5765C5.28636 12.1343 4.73757 10.5001 4.58041 8.80013H2.18881ZM11.4193 8.80013C11.2621 10.5002 10.7134 12.1343 9.82065 13.5765C11.9243 12.8901 13.5041 11.0487 13.8109 8.80013H11.4193ZM6.18686 8.80013C6.36796 10.4717 6.99441 12.0632 7.99936 13.4095C9.0046 12.0631 9.6327 10.472 9.81381 8.80013H6.18686ZM9.82065 2.4222C10.7137 3.86453 11.262 5.49922 11.4193 7.19954H13.8109C13.504 4.95094 11.9244 3.10842 9.82065 2.4222ZM7.99936 2.58919C6.9941 3.93557 6.36804 5.52775 6.18686 7.19954H9.81381C9.63261 5.52747 9.0049 3.93572 7.99936 2.58919ZM6.17905 2.4222C4.07544 3.1085 2.49565 4.95103 2.18881 7.19954H4.58041C4.73764 5.49927 5.28608 3.86451 6.17905 2.4222Z" fill="#1E1E1E"/>
</g>
<defs>
<clipPath id="clip0_2004_267">
<rect width="16" height="16" fill="white"/>
</clipPath>
</defs>
</svg>
