<svg width="17" height="16" viewBox="0 0 17 16" fill="none" xmlns="http://www.w3.org/2000/svg">
<path d="M15.1666 7.99992C15.1666 11.6818 12.1818 14.6666 8.49992 14.6666M15.1666 7.99992C15.1666 4.31802 12.1818 1.33325 8.49992 1.33325M15.1666 7.99992H1.83325M8.49992 14.6666C4.81802 14.6666 1.83325 11.6818 1.83325 7.99992M8.49992 14.6666C10.1674 12.841 11.1151 10.4719 11.1666 7.99992C11.1151 5.52794 10.1674 3.15882 8.49992 1.33325M8.49992 14.6666C6.8324 12.841 5.88475 10.4719 5.83325 7.99992C5.88475 5.52794 6.8324 3.15882 8.49992 1.33325M1.83325 7.99992C1.83325 4.31802 4.81802 1.33325 8.49992 1.33325" stroke="#757575" stroke-width="1.6" stroke-linecap="round" stroke-linejoin="round"/>
</svg>
