<svg width="18" height="20" viewBox="0 0 18 20" fill="none" xmlns="http://www.w3.org/2000/svg">
<path d="M8.9943 5.05078C10.0843 5.05078 10.8 5.83499 10.8001 7.02214V8.3099L7.19845 8.32031V7.02214C7.19845 5.83537 7.91436 5.05089 8.9943 5.05078Z" fill="#7EE01B"/>
<path fill-rule="evenodd" clip-rule="evenodd" d="M8.9943 0C9.30425 0 9.59302 0.0604355 9.88155 0.140625C11.1212 0.553108 15.1301 1.91159 16.3814 2.39453C17.2685 2.74692 17.75 3.07848 17.75 4.11458V11.6992C17.75 15.3112 15.6862 16.6397 9.71065 19.8086C9.43301 19.9395 9.16535 19.9999 8.9943 20C8.82333 20 8.56744 19.9394 8.28935 19.8086C2.32452 16.6297 0.250116 15.3119 0.25 11.7005V4.11458C0.250034 3.07848 0.73151 2.73662 1.61861 2.39453C2.86989 1.92189 6.87879 0.563409 8.11845 0.140625C8.40691 0.0600278 8.69537 2.98588e-05 8.9943 0ZM8.9943 4.03385C7.26258 4.03396 6.07621 5.28201 6.07621 7.13281V8.33984C5.50978 8.42056 5.24308 8.76254 5.24308 9.41667L5.24166 13.3203C5.24184 14.0745 5.59522 14.4258 6.33256 14.4258H11.656C12.4043 14.4258 12.7567 14.0745 12.7569 13.3203V9.41667C12.7569 8.75333 12.4903 8.41118 11.9138 8.33073V7.13281C11.9138 5.28193 10.7366 4.03385 8.9943 4.03385Z" fill="#7EE01B"/>
</svg>
