<svg width="16" height="16" viewBox="0 0 16 16" fill="none" xmlns="http://www.w3.org/2000/svg">
<path d="M7.99544 4.04063C8.86747 4.04063 9.44003 4.66799 9.4401 5.61771V6.64792L6.55876 6.65625V5.61771C6.55876 4.6683 7.13149 4.04071 7.99544 4.04063Z" fill="#34A853"/>
<path fill-rule="evenodd" clip-rule="evenodd" d="M7.99544 0C8.2434 0 8.47442 0.0483484 8.70524 0.1125C9.69697 0.442486 12.9041 1.52927 13.9051 1.91563C14.6148 2.19754 15 2.46279 15 3.29167V9.35938C15 12.2489 13.3489 13.3118 8.56852 15.8469C8.34641 15.9516 8.13228 16 7.99544 16C7.85867 16 7.65395 15.9515 7.43148 15.8469C2.65961 13.3038 1.00009 12.2495 1 9.36042V3.29167C1.00003 2.46279 1.38521 2.1893 2.09489 1.91563C3.09591 1.53751 6.30304 0.450727 7.29476 0.1125C7.52552 0.0480222 7.7563 2.3887e-05 7.99544 0ZM7.99544 3.22708C6.61006 3.22717 5.66097 4.22561 5.66097 5.70625V6.67188C5.20782 6.73645 4.99447 7.01003 4.99447 7.53333L4.99333 10.6563C4.99347 11.2596 5.27617 11.5406 5.86605 11.5406H10.1248C10.7235 11.5406 11.0054 11.2596 11.0055 10.6563V7.53333C11.0055 7.00267 10.7922 6.72894 10.3311 6.66458V5.70625C10.3311 4.22554 9.38931 3.22708 7.99544 3.22708Z" fill="#34A853"/>
</svg>
